<mxfile host="app.diagrams.net" modified="2021-02-06T02:02:11.620Z" agent="5.0 (Windows)" etag="1JKswgjsq9KYab1Z9kb2" version="14.2.9" type="github" pages="2">
  <diagram id="RxzH7hs2ZWaWXFJWe1hk" name="Page-2">
    <mxGraphModel dx="862" dy="1648" grid="1" gridSize="10" guides="1" tooltips="1" connect="1" arrows="1" fold="1" page="1" pageScale="1" pageWidth="827" pageHeight="1169" math="0" shadow="0">
      <root>
        <mxCell id="3KeiPZf0ssVmCGk3pfz3-0" />
        <mxCell id="3KeiPZf0ssVmCGk3pfz3-1" parent="3KeiPZf0ssVmCGk3pfz3-0" />
        <mxCell id="3KeiPZf0ssVmCGk3pfz3-2" value="Usuario" style="whiteSpace=wrap;html=1;align=center;" parent="3KeiPZf0ssVmCGk3pfz3-1" vertex="1">
          <mxGeometry x="40" y="160" width="70" height="30" as="geometry" />
        </mxCell>
        <mxCell id="3KeiPZf0ssVmCGk3pfz3-3" value="Compra" style="whiteSpace=wrap;html=1;align=center;" parent="3KeiPZf0ssVmCGk3pfz3-1" vertex="1">
          <mxGeometry x="340" y="170" width="80" height="30" as="geometry" />
        </mxCell>
        <mxCell id="3KeiPZf0ssVmCGk3pfz3-4" value="Categoría" style="whiteSpace=wrap;html=1;align=center;" parent="3KeiPZf0ssVmCGk3pfz3-1" vertex="1">
          <mxGeometry x="625" y="-20" width="100" height="40" as="geometry" />
        </mxCell>
        <mxCell id="3KeiPZf0ssVmCGk3pfz3-5" value="Producto" style="whiteSpace=wrap;html=1;align=center;" parent="3KeiPZf0ssVmCGk3pfz3-1" vertex="1">
          <mxGeometry x="640" y="170" width="70" height="30" as="geometry" />
        </mxCell>
        <mxCell id="3KeiPZf0ssVmCGk3pfz3-7" value="Hace" style="shape=rhombus;perimeter=rhombusPerimeter;whiteSpace=wrap;html=1;align=center;" parent="3KeiPZf0ssVmCGk3pfz3-1" vertex="1">
          <mxGeometry x="190" y="160" width="80" height="40" as="geometry" />
        </mxCell>
        <mxCell id="3KeiPZf0ssVmCGk3pfz3-8" value="Tiene" style="shape=rhombus;perimeter=rhombusPerimeter;whiteSpace=wrap;html=1;align=center;" parent="3KeiPZf0ssVmCGk3pfz3-1" vertex="1">
          <mxGeometry x="480" y="160" width="80" height="50" as="geometry" />
        </mxCell>
        <mxCell id="3KeiPZf0ssVmCGk3pfz3-10" value="Pertenece" style="shape=rhombus;perimeter=rhombusPerimeter;whiteSpace=wrap;html=1;align=center;" parent="3KeiPZf0ssVmCGk3pfz3-1" vertex="1">
          <mxGeometry x="630" y="70" width="90" height="40" as="geometry" />
        </mxCell>
        <mxCell id="3KeiPZf0ssVmCGk3pfz3-11" value="favorito" style="shape=rhombus;perimeter=rhombusPerimeter;whiteSpace=wrap;html=1;align=center;" parent="3KeiPZf0ssVmCGk3pfz3-1" vertex="1">
          <mxGeometry x="355" y="250" width="60" height="30" as="geometry" />
        </mxCell>
        <mxCell id="3KeiPZf0ssVmCGk3pfz3-14" value="" style="fontSize=12;html=1;endArrow=ERzeroToMany;endFill=1;exitX=0.5;exitY=1;exitDx=0;exitDy=0;entryX=0;entryY=0.5;entryDx=0;entryDy=0;" parent="3KeiPZf0ssVmCGk3pfz3-1" source="3KeiPZf0ssVmCGk3pfz3-2" target="3KeiPZf0ssVmCGk3pfz3-11" edge="1">
          <mxGeometry width="100" height="100" relative="1" as="geometry">
            <mxPoint x="40" y="490" as="sourcePoint" />
            <mxPoint x="140" y="390" as="targetPoint" />
            <Array as="points">
              <mxPoint x="75" y="265" />
            </Array>
          </mxGeometry>
        </mxCell>
        <mxCell id="A1wORv-ZNTnCBaZTpqI1-0" value="" style="edgeStyle=entityRelationEdgeStyle;fontSize=12;html=1;endArrow=ERzeroToMany;endFill=1;exitX=1;exitY=0.5;exitDx=0;exitDy=0;entryX=0;entryY=0.5;entryDx=0;entryDy=0;" parent="3KeiPZf0ssVmCGk3pfz3-1" source="3KeiPZf0ssVmCGk3pfz3-2" target="3KeiPZf0ssVmCGk3pfz3-7" edge="1">
          <mxGeometry width="100" height="100" relative="1" as="geometry">
            <mxPoint x="130" y="310" as="sourcePoint" />
            <mxPoint x="230" y="210" as="targetPoint" />
          </mxGeometry>
        </mxCell>
        <mxCell id="A1wORv-ZNTnCBaZTpqI1-1" value="" style="edgeStyle=entityRelationEdgeStyle;fontSize=12;html=1;endArrow=ERone;endFill=1;entryX=1;entryY=0.5;entryDx=0;entryDy=0;exitX=0;exitY=0.5;exitDx=0;exitDy=0;" parent="3KeiPZf0ssVmCGk3pfz3-1" source="3KeiPZf0ssVmCGk3pfz3-3" target="3KeiPZf0ssVmCGk3pfz3-7" edge="1">
          <mxGeometry width="100" height="100" relative="1" as="geometry">
            <mxPoint x="210" y="360" as="sourcePoint" />
            <mxPoint x="310" y="260" as="targetPoint" />
          </mxGeometry>
        </mxCell>
        <mxCell id="A1wORv-ZNTnCBaZTpqI1-2" value="" style="fontSize=12;html=1;endArrow=ERzeroToMany;endFill=1;exitX=0.5;exitY=1;exitDx=0;exitDy=0;entryX=1;entryY=0.5;entryDx=0;entryDy=0;" parent="3KeiPZf0ssVmCGk3pfz3-1" source="3KeiPZf0ssVmCGk3pfz3-5" target="3KeiPZf0ssVmCGk3pfz3-11" edge="1">
          <mxGeometry width="100" height="100" relative="1" as="geometry">
            <mxPoint x="75" y="320" as="sourcePoint" />
            <mxPoint x="220" y="240" as="targetPoint" />
            <Array as="points">
              <mxPoint x="675" y="265" />
            </Array>
          </mxGeometry>
        </mxCell>
        <mxCell id="A1wORv-ZNTnCBaZTpqI1-3" value="" style="edgeStyle=entityRelationEdgeStyle;fontSize=12;html=1;endArrow=ERoneToMany;exitX=1;exitY=0.5;exitDx=0;exitDy=0;entryX=0;entryY=0.5;entryDx=0;entryDy=0;" parent="3KeiPZf0ssVmCGk3pfz3-1" source="3KeiPZf0ssVmCGk3pfz3-3" target="3KeiPZf0ssVmCGk3pfz3-8" edge="1">
          <mxGeometry width="100" height="100" relative="1" as="geometry">
            <mxPoint x="440" y="320" as="sourcePoint" />
            <mxPoint x="540" y="220" as="targetPoint" />
          </mxGeometry>
        </mxCell>
        <mxCell id="A1wORv-ZNTnCBaZTpqI1-4" value="" style="edgeStyle=entityRelationEdgeStyle;fontSize=12;html=1;endArrow=ERone;endFill=1;exitX=0;exitY=0.5;exitDx=0;exitDy=0;entryX=1;entryY=0.5;entryDx=0;entryDy=0;" parent="3KeiPZf0ssVmCGk3pfz3-1" source="3KeiPZf0ssVmCGk3pfz3-5" target="3KeiPZf0ssVmCGk3pfz3-8" edge="1">
          <mxGeometry width="100" height="100" relative="1" as="geometry">
            <mxPoint x="590" y="360" as="sourcePoint" />
            <mxPoint x="690" y="260" as="targetPoint" />
          </mxGeometry>
        </mxCell>
        <mxCell id="A1wORv-ZNTnCBaZTpqI1-5" value="" style="fontSize=12;html=1;endArrow=ERone;endFill=1;exitX=0.5;exitY=0;exitDx=0;exitDy=0;entryX=0.5;entryY=1;entryDx=0;entryDy=0;" parent="3KeiPZf0ssVmCGk3pfz3-1" source="3KeiPZf0ssVmCGk3pfz3-5" target="3KeiPZf0ssVmCGk3pfz3-10" edge="1">
          <mxGeometry width="100" height="100" relative="1" as="geometry">
            <mxPoint x="540" y="140" as="sourcePoint" />
            <mxPoint x="640" y="40" as="targetPoint" />
            <Array as="points" />
          </mxGeometry>
        </mxCell>
        <mxCell id="A1wORv-ZNTnCBaZTpqI1-6" value="" style="fontSize=12;html=1;endArrow=ERoneToMany;entryX=0.5;entryY=0;entryDx=0;entryDy=0;exitX=0.5;exitY=1;exitDx=0;exitDy=0;" parent="3KeiPZf0ssVmCGk3pfz3-1" source="3KeiPZf0ssVmCGk3pfz3-4" target="3KeiPZf0ssVmCGk3pfz3-10" edge="1">
          <mxGeometry width="100" height="100" relative="1" as="geometry">
            <mxPoint x="520" y="130" as="sourcePoint" />
            <mxPoint x="620" y="30" as="targetPoint" />
          </mxGeometry>
        </mxCell>
      </root>
    </mxGraphModel>
  </diagram>
  <diagram id="R2lEEEUBdFMjLlhIrx00" name="Page-1">
    <mxGraphModel dx="1108" dy="719" grid="1" gridSize="10" guides="1" tooltips="1" connect="1" arrows="1" fold="1" page="1" pageScale="1" pageWidth="850" pageHeight="1100" math="0" shadow="0" extFonts="Permanent Marker^https://fonts.googleapis.com/css?family=Permanent+Marker">
      <root>
        <mxCell id="0" />
        <mxCell id="1" parent="0" />
        <mxCell id="KMKNXNfoUTT117izKfuX-3" value="Usuario" style="swimlane;childLayout=stackLayout;horizontal=1;startSize=30;horizontalStack=0;rounded=1;fontSize=14;fontStyle=0;strokeWidth=2;resizeParent=0;resizeLast=1;shadow=0;dashed=0;align=center;" parent="1" vertex="1">
          <mxGeometry x="30" y="170" width="160" height="120" as="geometry" />
        </mxCell>
        <mxCell id="KMKNXNfoUTT117izKfuX-4" value="correo&#xa;contraseña&#xa;tipoDocumento&#xa;documento&#xa;estado&#xa;&#xa;" style="align=left;strokeColor=none;fillColor=none;spacingLeft=4;fontSize=12;verticalAlign=top;resizable=0;rotatable=0;part=1;" parent="KMKNXNfoUTT117izKfuX-3" vertex="1">
          <mxGeometry y="30" width="160" height="90" as="geometry" />
        </mxCell>
        <mxCell id="KMKNXNfoUTT117izKfuX-12" value="Compra" style="swimlane;childLayout=stackLayout;horizontal=1;startSize=30;horizontalStack=0;rounded=1;fontSize=14;fontStyle=0;strokeWidth=2;resizeParent=0;resizeLast=1;shadow=0;dashed=0;align=center;" parent="1" vertex="1">
          <mxGeometry x="300" y="170" width="160" height="120" as="geometry" />
        </mxCell>
        <mxCell id="KMKNXNfoUTT117izKfuX-13" value="idCompra&#xa;idUsuario&#xa;fecha&#xa;valor&#xa;medioDePago&#xa;" style="align=left;strokeColor=none;fillColor=none;spacingLeft=4;fontSize=12;verticalAlign=top;resizable=0;rotatable=0;part=1;" parent="KMKNXNfoUTT117izKfuX-12" vertex="1">
          <mxGeometry y="30" width="160" height="90" as="geometry" />
        </mxCell>
        <mxCell id="oVXCaiQ2V0WX8Y322U3L-17" value="CompraProducto" style="swimlane;childLayout=stackLayout;horizontal=1;startSize=30;horizontalStack=0;rounded=1;fontSize=14;fontStyle=0;strokeWidth=2;resizeParent=0;resizeLast=1;shadow=0;dashed=0;align=center;" parent="1" vertex="1">
          <mxGeometry x="570" y="170" width="160" height="120" as="geometry" />
        </mxCell>
        <mxCell id="oVXCaiQ2V0WX8Y322U3L-18" value="id&#xa;idCompra&#xa;idProducto&#xa;cantidad&#xa;" style="align=left;strokeColor=none;fillColor=none;spacingLeft=4;fontSize=12;verticalAlign=top;resizable=0;rotatable=0;part=1;" parent="oVXCaiQ2V0WX8Y322U3L-17" vertex="1">
          <mxGeometry y="30" width="160" height="90" as="geometry" />
        </mxCell>
        <mxCell id="oVXCaiQ2V0WX8Y322U3L-19" value="Producto" style="swimlane;childLayout=stackLayout;horizontal=1;startSize=30;horizontalStack=0;rounded=1;fontSize=14;fontStyle=0;strokeWidth=2;resizeParent=0;resizeLast=1;shadow=0;dashed=0;align=center;" parent="1" vertex="1">
          <mxGeometry x="820" y="170" width="160" height="260" as="geometry" />
        </mxCell>
        <mxCell id="oVXCaiQ2V0WX8Y322U3L-20" value="id&#xa;idSubCategoria&#xa;nombre&#xa;descripción&#xa;cantidad&#xa;color&#xa;talla&#xa;marca&#xa;modelo&#xa;alto&#xa;largo&#xa;ancho&#xa;profundidad&#xa;otros&#xa;estado&#xa;&#xa;&#xa;" style="align=left;strokeColor=none;fillColor=none;spacingLeft=4;fontSize=12;verticalAlign=top;resizable=0;rotatable=0;part=1;" parent="oVXCaiQ2V0WX8Y322U3L-19" vertex="1">
          <mxGeometry y="30" width="160" height="230" as="geometry" />
        </mxCell>
        <mxCell id="oVXCaiQ2V0WX8Y322U3L-22" value="" style="endArrow=none;html=1;rounded=0;exitX=1.003;exitY=0.162;exitDx=0;exitDy=0;exitPerimeter=0;entryX=0;entryY=0.25;entryDx=0;entryDy=0;startArrow=ERmany;startFill=0;" parent="1" source="KMKNXNfoUTT117izKfuX-4" target="KMKNXNfoUTT117izKfuX-13" edge="1">
          <mxGeometry relative="1" as="geometry">
            <mxPoint x="200" y="390" as="sourcePoint" />
            <mxPoint x="360" y="390" as="targetPoint" />
          </mxGeometry>
        </mxCell>
        <mxCell id="oVXCaiQ2V0WX8Y322U3L-23" value="" style="endArrow=none;html=1;rounded=0;exitX=1;exitY=0.25;exitDx=0;exitDy=0;entryX=0;entryY=0.25;entryDx=0;entryDy=0;" parent="1" source="KMKNXNfoUTT117izKfuX-13" target="oVXCaiQ2V0WX8Y322U3L-18" edge="1">
          <mxGeometry relative="1" as="geometry">
            <mxPoint x="480" y="380" as="sourcePoint" />
            <mxPoint x="640" y="380" as="targetPoint" />
          </mxGeometry>
        </mxCell>
        <mxCell id="oVXCaiQ2V0WX8Y322U3L-24" value="" style="endArrow=none;html=1;rounded=0;entryX=-0.006;entryY=0.1;entryDx=0;entryDy=0;entryPerimeter=0;exitX=1;exitY=0.5;exitDx=0;exitDy=0;" parent="1" source="oVXCaiQ2V0WX8Y322U3L-18" target="oVXCaiQ2V0WX8Y322U3L-20" edge="1">
          <mxGeometry relative="1" as="geometry">
            <mxPoint x="620" y="350" as="sourcePoint" />
            <mxPoint x="780" y="350" as="targetPoint" />
            <Array as="points">
              <mxPoint x="750" y="216" />
            </Array>
          </mxGeometry>
        </mxCell>
        <mxCell id="oVXCaiQ2V0WX8Y322U3L-25" value="subCategoría" style="swimlane;childLayout=stackLayout;horizontal=1;startSize=30;horizontalStack=0;rounded=1;fontSize=14;fontStyle=0;strokeWidth=2;resizeParent=0;resizeLast=1;shadow=0;dashed=0;align=center;" parent="1" vertex="1">
          <mxGeometry x="810" y="450" width="160" height="120" as="geometry" />
        </mxCell>
        <mxCell id="oVXCaiQ2V0WX8Y322U3L-26" value="id&#xa;idCategoria&#xa;nombre&#xa;descripción&#xa;estado&#xa;&#xa;&#xa;" style="align=left;strokeColor=none;fillColor=none;spacingLeft=4;fontSize=12;verticalAlign=top;resizable=0;rotatable=0;part=1;" parent="oVXCaiQ2V0WX8Y322U3L-25" vertex="1">
          <mxGeometry y="30" width="160" height="90" as="geometry" />
        </mxCell>
        <mxCell id="oVXCaiQ2V0WX8Y322U3L-27" value="" style="endArrow=none;html=1;rounded=0;entryX=1.012;entryY=0.127;entryDx=0;entryDy=0;entryPerimeter=0;" parent="1" target="oVXCaiQ2V0WX8Y322U3L-20" edge="1">
          <mxGeometry relative="1" as="geometry">
            <mxPoint x="970" y="470" as="sourcePoint" />
            <mxPoint x="1020" y="400" as="targetPoint" />
            <Array as="points">
              <mxPoint x="1000" y="470" />
              <mxPoint x="1000" y="340" />
              <mxPoint x="1000" y="229" />
            </Array>
          </mxGeometry>
        </mxCell>
        <mxCell id="oVXCaiQ2V0WX8Y322U3L-28" value="Favoritos" style="swimlane;childLayout=stackLayout;horizontal=1;startSize=30;horizontalStack=0;rounded=1;fontSize=14;fontStyle=0;strokeWidth=2;resizeParent=0;resizeLast=1;shadow=0;dashed=0;align=center;" parent="1" vertex="1">
          <mxGeometry x="360" y="390" width="160" height="120" as="geometry" />
        </mxCell>
        <mxCell id="oVXCaiQ2V0WX8Y322U3L-29" value="id&#xa;idUsuario&#xa;idProducto&#xa;&#xa;&#xa;" style="align=left;strokeColor=none;fillColor=none;spacingLeft=4;fontSize=12;verticalAlign=top;resizable=0;rotatable=0;part=1;" parent="oVXCaiQ2V0WX8Y322U3L-28" vertex="1">
          <mxGeometry y="30" width="160" height="90" as="geometry" />
        </mxCell>
        <mxCell id="oVXCaiQ2V0WX8Y322U3L-30" value="" style="endArrow=none;html=1;rounded=0;exitX=-0.006;exitY=0.114;exitDx=0;exitDy=0;exitPerimeter=0;entryX=0;entryY=0.25;entryDx=0;entryDy=0;" parent="1" source="KMKNXNfoUTT117izKfuX-4" target="oVXCaiQ2V0WX8Y322U3L-29" edge="1">
          <mxGeometry relative="1" as="geometry">
            <mxPoint x="80" y="450" as="sourcePoint" />
            <mxPoint x="240" y="450" as="targetPoint" />
            <Array as="points">
              <mxPoint x="10" y="210" />
              <mxPoint x="10" y="443" />
            </Array>
          </mxGeometry>
        </mxCell>
        <mxCell id="oVXCaiQ2V0WX8Y322U3L-31" value="" style="endArrow=none;html=1;rounded=0;exitX=1;exitY=0.5;exitDx=0;exitDy=0;entryX=0.003;entryY=0.082;entryDx=0;entryDy=0;entryPerimeter=0;" parent="1" source="oVXCaiQ2V0WX8Y322U3L-29" target="oVXCaiQ2V0WX8Y322U3L-20" edge="1">
          <mxGeometry relative="1" as="geometry">
            <mxPoint x="580" y="450" as="sourcePoint" />
            <mxPoint x="740" y="450" as="targetPoint" />
            <Array as="points">
              <mxPoint x="770" y="465" />
              <mxPoint x="770" y="213" />
            </Array>
          </mxGeometry>
        </mxCell>
        <mxCell id="t97wQVj9WpkQy9e8TELb-1" value="Categoría" style="swimlane;childLayout=stackLayout;horizontal=1;startSize=30;horizontalStack=0;rounded=1;fontSize=14;fontStyle=0;strokeWidth=2;resizeParent=0;resizeLast=1;shadow=0;dashed=0;align=center;" parent="1" vertex="1">
          <mxGeometry x="810" y="590" width="160" height="120" as="geometry" />
        </mxCell>
        <mxCell id="t97wQVj9WpkQy9e8TELb-2" value="id&#xa;idCategoriaPrincipal&#xa;nombre&#xa;descripción&#xa;estado&#xa;&#xa;&#xa;" style="align=left;strokeColor=none;fillColor=none;spacingLeft=4;fontSize=12;verticalAlign=top;resizable=0;rotatable=0;part=1;" parent="t97wQVj9WpkQy9e8TELb-1" vertex="1">
          <mxGeometry y="30" width="160" height="90" as="geometry" />
        </mxCell>
        <mxCell id="t97wQVj9WpkQy9e8TELb-3" value="" style="endArrow=none;html=1;rounded=0;exitX=1;exitY=0.25;exitDx=0;exitDy=0;entryX=1;entryY=0;entryDx=0;entryDy=0;" parent="1" source="oVXCaiQ2V0WX8Y322U3L-26" target="t97wQVj9WpkQy9e8TELb-2" edge="1">
          <mxGeometry relative="1" as="geometry">
            <mxPoint x="1050" y="580" as="sourcePoint" />
            <mxPoint x="1210" y="580" as="targetPoint" />
            <Array as="points">
              <mxPoint x="1040" y="483" />
              <mxPoint x="1040" y="620" />
            </Array>
          </mxGeometry>
        </mxCell>
        <mxCell id="PmoitypQhOPVoDSf-sWX-1" value="Foto" style="swimlane;childLayout=stackLayout;horizontal=1;startSize=30;horizontalStack=0;rounded=1;fontSize=14;fontStyle=0;strokeWidth=2;resizeParent=0;resizeLast=1;shadow=0;dashed=0;align=center;" vertex="1" parent="1">
          <mxGeometry x="1240" y="160" width="160" height="120" as="geometry" />
        </mxCell>
        <mxCell id="PmoitypQhOPVoDSf-sWX-2" value="id&#xa;contenido&#xa;" style="align=left;strokeColor=none;fillColor=none;spacingLeft=4;fontSize=12;verticalAlign=top;resizable=0;rotatable=0;part=1;" vertex="1" parent="PmoitypQhOPVoDSf-sWX-1">
          <mxGeometry y="30" width="160" height="90" as="geometry" />
        </mxCell>
        <mxCell id="PmoitypQhOPVoDSf-sWX-3" value="id&#xa;contenido&#xa;" style="align=left;strokeColor=none;fillColor=none;spacingLeft=4;fontSize=12;verticalAlign=top;resizable=0;rotatable=0;part=1;" vertex="1" parent="1">
          <mxGeometry x="1240" y="190" width="160" height="90" as="geometry" />
        </mxCell>
        <mxCell id="PmoitypQhOPVoDSf-sWX-4" value="ProductoFoto" style="swimlane;childLayout=stackLayout;horizontal=1;startSize=30;horizontalStack=0;rounded=1;fontSize=14;fontStyle=0;strokeWidth=2;resizeParent=0;resizeLast=1;shadow=0;dashed=0;align=center;" vertex="1" parent="1">
          <mxGeometry x="1040" y="240" width="160" height="120" as="geometry" />
        </mxCell>
        <mxCell id="PmoitypQhOPVoDSf-sWX-5" value="id&#xa;idProducto&#xa;idFoto&#xa;&#xa;" style="align=left;strokeColor=none;fillColor=none;spacingLeft=4;fontSize=12;verticalAlign=top;resizable=0;rotatable=0;part=1;" vertex="1" parent="PmoitypQhOPVoDSf-sWX-4">
          <mxGeometry y="30" width="160" height="90" as="geometry" />
        </mxCell>
        <mxCell id="PmoitypQhOPVoDSf-sWX-6" value="" style="endArrow=none;html=1;rounded=0;exitX=1;exitY=0.087;exitDx=0;exitDy=0;exitPerimeter=0;entryX=0;entryY=0.25;entryDx=0;entryDy=0;" edge="1" parent="1" source="oVXCaiQ2V0WX8Y322U3L-20" target="PmoitypQhOPVoDSf-sWX-5">
          <mxGeometry relative="1" as="geometry">
            <mxPoint x="1100" y="440" as="sourcePoint" />
            <mxPoint x="1040" y="280" as="targetPoint" />
            <Array as="points">
              <mxPoint x="1000" y="220" />
            </Array>
          </mxGeometry>
        </mxCell>
        <mxCell id="PmoitypQhOPVoDSf-sWX-7" value="" style="endArrow=none;html=1;rounded=0;entryX=0;entryY=0.089;entryDx=0;entryDy=0;entryPerimeter=0;" edge="1" parent="1" target="PmoitypQhOPVoDSf-sWX-3">
          <mxGeometry relative="1" as="geometry">
            <mxPoint x="1200" y="310" as="sourcePoint" />
            <mxPoint x="1360" y="330" as="targetPoint" />
          </mxGeometry>
        </mxCell>
      </root>
    </mxGraphModel>
  </diagram>
</mxfile>
